<svg width="613" height="1024" viewBox="0 0 613 1024" fill="none" xmlns="http://www.w3.org/2000/svg">
<g filter="url(#filter0_d_104_114)">
<path d="M139.875 472.581C143.89 462.08 152.333 448.879 157.2 450.627C162.068 452.376 159.535 468.923 163.24 480.976C166.945 493.028 177.624 502.983 174.983 508.478C172.342 513.974 158.283 508.905 150.563 507.354C142.843 505.802 140.154 508.275 137.927 501.031" stroke="url(#paint0_linear_104_114)" stroke-width="3" shape-rendering="crispEdges"/>
</g>
<g filter="url(#filter1_d_104_114)">
<path d="M85.6988 437.581C103.343 391.436 140.444 333.421 161.835 341.106C183.226 348.791 172.096 421.507 188.376 474.47C204.656 527.433 251.585 571.179 239.979 595.328C228.374 619.477 166.594 597.204 132.669 590.386C98.7442 583.568 86.9266 594.436 77.1412 562.602" stroke="url(#paint1_linear_104_114)" stroke-width="3" shape-rendering="crispEdges"/>
</g>
<g filter="url(#filter2_d_104_114)">
<path d="M125.119 463.716C132.81 443.602 148.982 418.314 158.306 421.663C167.631 425.013 162.779 456.71 169.875 479.796C176.972 502.882 197.428 521.951 192.369 532.478C187.31 543.004 160.38 533.295 145.593 530.323C130.805 527.352 125.654 532.089 121.388 518.212" stroke="url(#paint2_linear_104_114)" stroke-width="3" shape-rendering="crispEdges"/>
</g>
<g filter="url(#filter3_d_104_114)">
<path d="M68.5653 427.253C91.0646 368.412 138.373 294.435 165.65 304.235C192.926 314.034 178.734 406.756 199.493 474.291C220.252 541.826 280.093 597.608 265.294 628.401C250.495 659.195 171.717 630.794 128.459 622.1C85.2 613.406 70.1309 627.265 57.6532 586.671" stroke="url(#paint3_linear_104_114)" stroke-width="3" shape-rendering="crispEdges"/>
</g>
<g filter="url(#filter4_d_104_114)">
<path d="M10.3558 416.935C48.2086 317.94 127.801 193.481 173.691 209.968C219.581 226.455 195.703 382.451 230.628 496.071C265.553 609.692 366.23 703.54 341.332 755.347C316.435 807.154 183.898 759.372 111.12 744.745C38.342 730.119 12.9897 753.434 -8.00283 685.14" stroke="url(#paint4_linear_104_114)" stroke-width="3" shape-rendering="crispEdges"/>
</g>
<g filter="url(#filter5_d_104_114)">
<path d="M111.149 450.076C122.511 420.362 146.401 383.005 160.175 387.953C173.949 392.902 166.782 439.725 177.265 473.829C187.748 507.933 217.967 536.102 210.494 551.653C203.021 567.203 163.239 552.861 141.394 548.471C119.549 544.08 111.939 551.079 105.638 530.58" stroke="url(#paint5_linear_104_114)" stroke-width="3" shape-rendering="crispEdges"/>
</g>
<g filter="url(#filter6_d_104_114)">
<path d="M51.1959 424.82C77.96 354.825 134.236 266.826 166.683 278.483C199.13 290.14 182.247 400.438 206.941 480.774C231.635 561.11 302.819 627.466 285.215 664.096C267.611 700.727 173.9 666.942 122.442 656.6C70.9837 646.259 53.0583 662.744 38.2154 614.456" stroke="url(#paint6_linear_104_114)" stroke-width="3" shape-rendering="crispEdges"/>
</g>
<g filter="url(#filter7_d_104_114)">
<path d="M-18.8666 412.841C26.1613 295.082 120.84 147.032 175.429 166.644C230.017 186.256 201.613 371.821 243.159 506.978C284.704 642.136 404.464 753.772 374.847 815.4C345.23 877.027 187.571 820.187 100.998 802.789C14.4245 785.39 -15.7333 813.124 -40.7051 731.885" stroke="url(#paint7_linear_104_114)" stroke-width="3" shape-rendering="crispEdges"/>
</g>
<g filter="url(#filter8_d_104_114)">
<path d="M93.8287 440.817C109.508 399.811 142.477 348.258 161.485 355.087C180.494 361.916 170.603 426.533 185.07 473.597C199.536 520.66 241.238 559.534 230.925 580.993C220.612 602.453 165.713 582.66 135.567 576.602C105.421 570.543 94.9197 580.201 86.2242 551.912" stroke="url(#paint8_linear_104_114)" stroke-width="3" shape-rendering="crispEdges"/>
</g>
<g filter="url(#filter9_d_104_114)">
<path d="M30.488 416.553C62.1761 333.681 128.806 229.492 167.222 243.294C205.638 257.095 185.649 387.686 214.887 482.802C244.124 577.918 328.404 656.481 307.561 699.851C286.719 743.221 175.767 703.221 114.842 690.976C53.9163 678.732 32.693 698.25 15.1193 641.079" stroke="url(#paint9_linear_104_114)" stroke-width="3" shape-rendering="crispEdges"/>
</g>
<g filter="url(#filter10_d_104_114)">
<path d="M-53.7056 398.933C-0.393549 259.51 111.704 84.2213 176.336 107.441C240.968 130.661 207.338 350.366 256.527 510.39C305.716 670.413 447.508 802.589 412.443 875.554C377.377 948.519 190.712 881.223 88.2112 860.623C-14.2898 840.023 -49.9959 872.86 -79.5619 776.675" stroke="url(#paint10_linear_104_114)" stroke-width="3" shape-rendering="crispEdges"/>
</g>
<g filter="url(#filter11_d_104_114)">
<path d="M-96.1673 382.909C-31.4159 213.569 104.735 0.668935 183.235 28.8713C261.734 57.0737 220.889 323.921 280.632 518.281C340.376 712.641 512.593 873.178 470.003 961.799C427.413 1050.42 200.696 968.684 76.2009 943.664C-48.2939 918.644 -91.6616 958.527 -127.572 841.703" stroke="url(#paint11_linear_104_114)" stroke-width="3" shape-rendering="crispEdges"/>
</g>
<g filter="url(#filter12_d_104_114)">
<path d="M-146.155 375.907C-69.1301 174.468 92.8281 -78.7882 186.208 -45.24C279.587 -11.6917 230.999 305.737 302.067 536.938C373.135 768.14 577.997 959.106 527.334 1064.53C476.671 1169.95 206.979 1072.72 58.8857 1042.95C-89.2073 1013.19 -140.795 1060.63 -183.512 921.666" stroke="url(#paint12_linear_104_114)" stroke-width="3" shape-rendering="crispEdges"/>
</g>
<g filter="url(#filter13_d_104_114)">
<path d="M-205.751 352.116C-114.555 113.617 77.2 -186.232 187.759 -146.512C298.319 -106.791 240.792 269.037 324.934 542.775C409.077 816.512 651.629 1042.61 591.645 1167.43C531.661 1292.24 212.352 1177.12 37.013 1141.89C-138.326 1106.65 -199.405 1162.82 -249.981 998.284" stroke="url(#paint13_linear_104_114)" stroke-width="3" shape-rendering="crispEdges"/>
</g>
<defs>
<filter id="filter0_d_104_114" x="124.993" y="438.968" width="61.9056" height="83.5058" filterUnits="userSpaceOnUse" color-interpolation-filters="sRGB">
<feFlood flood-opacity="0" result="BackgroundImageFix"/>
<feColorMatrix in="SourceAlpha" type="matrix" values="0 0 0 0 0 0 0 0 0 0 0 0 0 0 0 0 0 0 127 0" result="hardAlpha"/>
<feOffset/>
<feGaussianBlur stdDeviation="5"/>
<feComposite in2="hardAlpha" operator="out"/>
<feColorMatrix type="matrix" values="0 0 0 0 0.229167 0 0 0 0 1 0 0 0 0 0.9075 0 0 0 1 0"/>
<feBlend mode="normal" in2="BackgroundImageFix" result="effect1_dropShadow_104_114"/>
<feBlend mode="normal" in="SourceGraphic" in2="effect1_dropShadow_104_114" result="shape"/>
</filter>
<filter id="filter1_d_104_114" x="59.3369" y="328.913" width="193.967" height="288.881" filterUnits="userSpaceOnUse" color-interpolation-filters="sRGB">
<feFlood flood-opacity="0" result="BackgroundImageFix"/>
<feColorMatrix in="SourceAlpha" type="matrix" values="0 0 0 0 0 0 0 0 0 0 0 0 0 0 0 0 0 0 127 0" result="hardAlpha"/>
<feOffset/>
<feGaussianBlur stdDeviation="5"/>
<feComposite in2="hardAlpha" operator="out"/>
<feColorMatrix type="matrix" values="0 0 0 0 0.229167 0 0 0 0 1 0 0 0 0 0.9075 0 0 0 1 0"/>
<feBlend mode="normal" in2="BackgroundImageFix" result="effect1_dropShadow_104_114"/>
<feBlend mode="normal" in="SourceGraphic" in2="effect1_dropShadow_104_114" result="shape"/>
</filter>
<filter id="filter2_d_104_114" x="107.14" y="409.86" width="97.5239" height="138.898" filterUnits="userSpaceOnUse" color-interpolation-filters="sRGB">
<feFlood flood-opacity="0" result="BackgroundImageFix"/>
<feColorMatrix in="SourceAlpha" type="matrix" values="0 0 0 0 0 0 0 0 0 0 0 0 0 0 0 0 0 0 127 0" result="hardAlpha"/>
<feOffset/>
<feGaussianBlur stdDeviation="5"/>
<feComposite in2="hardAlpha" operator="out"/>
<feColorMatrix type="matrix" values="0 0 0 0 0.229167 0 0 0 0 1 0 0 0 0 0.9075 0 0 0 1 0"/>
<feBlend mode="normal" in2="BackgroundImageFix" result="effect1_dropShadow_104_114"/>
<feBlend mode="normal" in="SourceGraphic" in2="effect1_dropShadow_104_114" result="shape"/>
</filter>
<filter id="filter3_d_104_114" x="38.1143" y="291.852" width="241.006" height="362.034" filterUnits="userSpaceOnUse" color-interpolation-filters="sRGB">
<feFlood flood-opacity="0" result="BackgroundImageFix"/>
<feColorMatrix in="SourceAlpha" type="matrix" values="0 0 0 0 0 0 0 0 0 0 0 0 0 0 0 0 0 0 127 0" result="hardAlpha"/>
<feOffset/>
<feGaussianBlur stdDeviation="5"/>
<feComposite in2="hardAlpha" operator="out"/>
<feColorMatrix type="matrix" values="0 0 0 0 0.229167 0 0 0 0 1 0 0 0 0 0.9075 0 0 0 1 0"/>
<feBlend mode="normal" in2="BackgroundImageFix" result="effect1_dropShadow_104_114"/>
<feBlend mode="normal" in="SourceGraphic" in2="effect1_dropShadow_104_114" result="shape"/>
</filter>
<filter id="filter4_d_104_114" x="-33.0274" y="196.984" width="389.774" height="593.39" filterUnits="userSpaceOnUse" color-interpolation-filters="sRGB">
<feFlood flood-opacity="0" result="BackgroundImageFix"/>
<feColorMatrix in="SourceAlpha" type="matrix" values="0 0 0 0 0 0 0 0 0 0 0 0 0 0 0 0 0 0 127 0" result="hardAlpha"/>
<feOffset/>
<feGaussianBlur stdDeviation="5"/>
<feComposite in2="hardAlpha" operator="out"/>
<feColorMatrix type="matrix" values="0 0 0 0 0.229167 0 0 0 0 1 0 0 0 0 0.9075 0 0 0 1 0"/>
<feBlend mode="normal" in2="BackgroundImageFix" result="effect1_dropShadow_104_114"/>
<feBlend mode="normal" in="SourceGraphic" in2="effect1_dropShadow_104_114" result="shape"/>
</filter>
<filter id="filter5_d_104_114" x="90.0787" y="376.006" width="133.09" height="194.208" filterUnits="userSpaceOnUse" color-interpolation-filters="sRGB">
<feFlood flood-opacity="0" result="BackgroundImageFix"/>
<feColorMatrix in="SourceAlpha" type="matrix" values="0 0 0 0 0 0 0 0 0 0 0 0 0 0 0 0 0 0 127 0" result="hardAlpha"/>
<feOffset/>
<feGaussianBlur stdDeviation="5"/>
<feComposite in2="hardAlpha" operator="out"/>
<feColorMatrix type="matrix" values="0 0 0 0 0.229167 0 0 0 0 1 0 0 0 0 0.9075 0 0 0 1 0"/>
<feBlend mode="normal" in2="BackgroundImageFix" result="effect1_dropShadow_104_114"/>
<feBlend mode="normal" in="SourceGraphic" in2="effect1_dropShadow_104_114" result="shape"/>
</filter>
<filter id="filter6_d_104_114" x="17.1527" y="265.933" width="282.33" height="426.298" filterUnits="userSpaceOnUse" color-interpolation-filters="sRGB">
<feFlood flood-opacity="0" result="BackgroundImageFix"/>
<feColorMatrix in="SourceAlpha" type="matrix" values="0 0 0 0 0 0 0 0 0 0 0 0 0 0 0 0 0 0 127 0" result="hardAlpha"/>
<feOffset/>
<feGaussianBlur stdDeviation="5"/>
<feComposite in2="hardAlpha" operator="out"/>
<feColorMatrix type="matrix" values="0 0 0 0 0.229167 0 0 0 0 1 0 0 0 0 0.9075 0 0 0 1 0"/>
<feBlend mode="normal" in2="BackgroundImageFix" result="effect1_dropShadow_104_114"/>
<feBlend mode="normal" in="SourceGraphic" in2="effect1_dropShadow_104_114" result="shape"/>
</filter>
<filter id="filter7_d_104_114" x="-68.2932" y="153.379" width="459.296" height="701.508" filterUnits="userSpaceOnUse" color-interpolation-filters="sRGB">
<feFlood flood-opacity="0" result="BackgroundImageFix"/>
<feColorMatrix in="SourceAlpha" type="matrix" values="0 0 0 0 0 0 0 0 0 0 0 0 0 0 0 0 0 0 127 0" result="hardAlpha"/>
<feOffset/>
<feGaussianBlur stdDeviation="5"/>
<feComposite in2="hardAlpha" operator="out"/>
<feColorMatrix type="matrix" values="0 0 0 0 0.229167 0 0 0 0 1 0 0 0 0 0.9075 0 0 0 1 0"/>
<feBlend mode="normal" in2="BackgroundImageFix" result="effect1_dropShadow_104_114"/>
<feBlend mode="normal" in="SourceGraphic" in2="effect1_dropShadow_104_114" result="shape"/>
</filter>
<filter id="filter8_d_104_114" x="69.1221" y="342.971" width="174.925" height="259.267" filterUnits="userSpaceOnUse" color-interpolation-filters="sRGB">
<feFlood flood-opacity="0" result="BackgroundImageFix"/>
<feColorMatrix in="SourceAlpha" type="matrix" values="0 0 0 0 0 0 0 0 0 0 0 0 0 0 0 0 0 0 127 0" result="hardAlpha"/>
<feOffset/>
<feGaussianBlur stdDeviation="5"/>
<feComposite in2="hardAlpha" operator="out"/>
<feColorMatrix type="matrix" values="0 0 0 0 0.229167 0 0 0 0 1 0 0 0 0 0.9075 0 0 0 1 0"/>
<feBlend mode="normal" in2="BackgroundImageFix" result="effect1_dropShadow_104_114"/>
<feBlend mode="normal" in="SourceGraphic" in2="effect1_dropShadow_104_114" result="shape"/>
</filter>
<filter id="filter9_d_104_114" x="-7.70264" y="230.551" width="330.04" height="500.496" filterUnits="userSpaceOnUse" color-interpolation-filters="sRGB">
<feFlood flood-opacity="0" result="BackgroundImageFix"/>
<feColorMatrix in="SourceAlpha" type="matrix" values="0 0 0 0 0 0 0 0 0 0 0 0 0 0 0 0 0 0 127 0" result="hardAlpha"/>
<feOffset/>
<feGaussianBlur stdDeviation="5"/>
<feComposite in2="hardAlpha" operator="out"/>
<feColorMatrix type="matrix" values="0 0 0 0 0.229167 0 0 0 0 1 0 0 0 0 0.9075 0 0 0 1 0"/>
<feBlend mode="normal" in2="BackgroundImageFix" result="effect1_dropShadow_104_114"/>
<feBlend mode="normal" in="SourceGraphic" in2="effect1_dropShadow_104_114" result="shape"/>
</filter>
<filter id="filter10_d_104_114" x="-110.11" y="93.8525" width="539.565" height="826.338" filterUnits="userSpaceOnUse" color-interpolation-filters="sRGB">
<feFlood flood-opacity="0" result="BackgroundImageFix"/>
<feColorMatrix in="SourceAlpha" type="matrix" values="0 0 0 0 0 0 0 0 0 0 0 0 0 0 0 0 0 0 127 0" result="hardAlpha"/>
<feOffset/>
<feGaussianBlur stdDeviation="5"/>
<feComposite in2="hardAlpha" operator="out"/>
<feColorMatrix type="matrix" values="0 0 0 0 0.229167 0 0 0 0 1 0 0 0 0 0.9075 0 0 0 1 0"/>
<feBlend mode="normal" in2="BackgroundImageFix" result="effect1_dropShadow_104_114"/>
<feBlend mode="normal" in="SourceGraphic" in2="effect1_dropShadow_104_114" result="shape"/>
</filter>
<filter id="filter11_d_104_114" x="-162.207" y="14.8348" width="650.405" height="998.711" filterUnits="userSpaceOnUse" color-interpolation-filters="sRGB">
<feFlood flood-opacity="0" result="BackgroundImageFix"/>
<feColorMatrix in="SourceAlpha" type="matrix" values="0 0 0 0 0 0 0 0 0 0 0 0 0 0 0 0 0 0 127 0" result="hardAlpha"/>
<feOffset/>
<feGaussianBlur stdDeviation="5"/>
<feComposite in2="hardAlpha" operator="out"/>
<feColorMatrix type="matrix" values="0 0 0 0 0.229167 0 0 0 0 1 0 0 0 0 0.9075 0 0 0 1 0"/>
<feBlend mode="normal" in2="BackgroundImageFix" result="effect1_dropShadow_104_114"/>
<feBlend mode="normal" in="SourceGraphic" in2="effect1_dropShadow_104_114" result="shape"/>
</filter>
<filter id="filter12_d_104_114" x="-222.533" y="-59.7569" width="769.331" height="1183.66" filterUnits="userSpaceOnUse" color-interpolation-filters="sRGB">
<feFlood flood-opacity="0" result="BackgroundImageFix"/>
<feColorMatrix in="SourceAlpha" type="matrix" values="0 0 0 0 0 0 0 0 0 0 0 0 0 0 0 0 0 0 127 0" result="hardAlpha"/>
<feOffset/>
<feGaussianBlur stdDeviation="5"/>
<feComposite in2="hardAlpha" operator="out"/>
<feColorMatrix type="matrix" values="0 0 0 0 0.229167 0 0 0 0 1 0 0 0 0 0.9075 0 0 0 1 0"/>
<feBlend mode="normal" in2="BackgroundImageFix" result="effect1_dropShadow_104_114"/>
<feBlend mode="normal" in="SourceGraphic" in2="effect1_dropShadow_104_114" result="shape"/>
</filter>
<filter id="filter13_d_104_114" x="-294.064" y="-161.583" width="906.639" height="1397.19" filterUnits="userSpaceOnUse" color-interpolation-filters="sRGB">
<feFlood flood-opacity="0" result="BackgroundImageFix"/>
<feColorMatrix in="SourceAlpha" type="matrix" values="0 0 0 0 0 0 0 0 0 0 0 0 0 0 0 0 0 0 127 0" result="hardAlpha"/>
<feOffset/>
<feGaussianBlur stdDeviation="5"/>
<feComposite in2="hardAlpha" operator="out"/>
<feColorMatrix type="matrix" values="0 0 0 0 0.229167 0 0 0 0 1 0 0 0 0 0.9075 0 0 0 1 0"/>
<feBlend mode="normal" in2="BackgroundImageFix" result="effect1_dropShadow_104_114"/>
<feBlend mode="normal" in="SourceGraphic" in2="effect1_dropShadow_104_114" result="shape"/>
</filter>
<linearGradient id="paint0_linear_104_114" x1="-1762.34" y1="528.879" x2="-1818.53" y2="-5533" gradientUnits="userSpaceOnUse">
<stop offset="0.317708" stop-color="#73FFFF" stop-opacity="0.56"/>
<stop offset="0.791667" stop-color="#1DFFFF"/>
</linearGradient>
<linearGradient id="paint1_linear_104_114" x1="-8273.46" y1="684.976" x2="-8520.38" y2="-25953.5" gradientUnits="userSpaceOnUse">
<stop offset="0.317708" stop-color="#73FFFF" stop-opacity="0.56"/>
<stop offset="0.791667" stop-color="#1DFFFF"/>
</linearGradient>
<linearGradient id="paint2_linear_104_114" x1="-3518.6" y1="571.555" x2="-3626.23" y2="-11040" gradientUnits="userSpaceOnUse">
<stop offset="0.317708" stop-color="#73FFFF" stop-opacity="0.56"/>
<stop offset="0.791667" stop-color="#1DFFFF"/>
</linearGradient>
<linearGradient id="paint3_linear_104_114" x1="-10590.5" y1="742.715" x2="-10905.4" y2="-33225" gradientUnits="userSpaceOnUse">
<stop offset="0.317708" stop-color="#73FFFF" stop-opacity="0.56"/>
<stop offset="0.791667" stop-color="#1DFFFF"/>
</linearGradient>
<linearGradient id="paint4_linear_104_114" x1="-17922.5" y1="947.668" x2="-18452.2" y2="-56199.6" gradientUnits="userSpaceOnUse">
<stop offset="0.317708" stop-color="#73FFFF" stop-opacity="0.56"/>
<stop offset="0.791667" stop-color="#1DFFFF"/>
</linearGradient>
<linearGradient id="paint5_linear_104_114" x1="-5271.52" y1="609.379" x2="-5430.52" y2="-16543.8" gradientUnits="userSpaceOnUse">
<stop offset="0.317708" stop-color="#73FFFF" stop-opacity="0.56"/>
<stop offset="0.791667" stop-color="#1DFFFF"/>
</linearGradient>
<linearGradient id="paint6_linear_104_114" x1="-12628.3" y1="800.078" x2="-13002.9" y2="-39606.2" gradientUnits="userSpaceOnUse">
<stop offset="0.317708" stop-color="#73FFFF" stop-opacity="0.56"/>
<stop offset="0.791667" stop-color="#1DFFFF"/>
</linearGradient>
<linearGradient id="paint7_linear_104_114" x1="-21350.9" y1="1044.18" x2="-21981" y2="-66935.4" gradientUnits="userSpaceOnUse">
<stop offset="0.317708" stop-color="#73FFFF" stop-opacity="0.56"/>
<stop offset="0.791667" stop-color="#1DFFFF"/>
</linearGradient>
<linearGradient id="paint8_linear_104_114" x1="-7334.28" y1="660.656" x2="-7553.7" y2="-23010.8" gradientUnits="userSpaceOnUse">
<stop offset="0.317708" stop-color="#73FFFF" stop-opacity="0.56"/>
<stop offset="0.791667" stop-color="#1DFFFF"/>
</linearGradient>
<linearGradient id="paint9_linear_104_114" x1="-14981.8" y1="860.851" x2="-15425.2" y2="-46979.3" gradientUnits="userSpaceOnUse">
<stop offset="0.317708" stop-color="#73FFFF" stop-opacity="0.56"/>
<stop offset="0.791667" stop-color="#1DFFFF"/>
</linearGradient>
<linearGradient id="paint10_linear_104_114" x1="-25310.3" y1="1146.42" x2="-26056.4" y2="-79339.9" gradientUnits="userSpaceOnUse">
<stop offset="0.317708" stop-color="#73FFFF" stop-opacity="0.56"/>
<stop offset="0.791667" stop-color="#1DFFFF"/>
</linearGradient>
<linearGradient id="paint11_linear_104_114" x1="-30772.1" y1="1290.78" x2="-31678.3" y2="-96465.6" gradientUnits="userSpaceOnUse">
<stop offset="0.317708" stop-color="#73FFFF" stop-opacity="0.56"/>
<stop offset="0.791667" stop-color="#1DFFFF"/>
</linearGradient>
<linearGradient id="paint12_linear_104_114" x1="-36636.8" y1="1455.87" x2="-37714.7" y2="-114830" gradientUnits="userSpaceOnUse">
<stop offset="0.317708" stop-color="#73FFFF" stop-opacity="0.56"/>
<stop offset="0.791667" stop-color="#1DFFFF"/>
</linearGradient>
<linearGradient id="paint13_linear_104_114" x1="-43409.9" y1="1630.77" x2="-44686.1" y2="-136050" gradientUnits="userSpaceOnUse">
<stop offset="0.317708" stop-color="#73FFFF" stop-opacity="0.56"/>
<stop offset="0.791667" stop-color="#1DFFFF"/>
</linearGradient>
</defs>
</svg>
